<?xml version="1.0" standalone="no"?>
<!DOCTYPE svg PUBLIC "-//W3C//DTD SVG 20010904//EN"
 "http://www.w3.org/TR/2001/REC-SVG-20010904/DTD/svg10.dtd">
<svg version="1.0" xmlns="http://www.w3.org/2000/svg"
 width="310.000000pt" height="153.000000pt" viewBox="0 0 310.000000 153.000000"
 preserveAspectRatio="xMidYMid meet">

<g transform="translate(0.000000,153.000000) scale(0.100000,-0.100000)"
fill="#000000" stroke="none">
<path d="M1326 1513 c-6 -21 -66 -313 -166 -813 -39 -195 -73 -363 -76 -372
-5 -16 5 -18 115 -18 l120 0 15 73 c9 39 38 187 66 327 28 140 53 265 56 278
5 23 5 23 143 20 152 -3 173 -11 184 -66 5 -21 -78 -477 -110 -610 -5 -22 -5
-22 115 -22 l121 0 15 72 c17 75 99 493 111 561 10 58 -12 143 -46 182 -54 61
-119 78 -317 83 l-174 4 7 26 c12 50 55 265 55 278 0 11 -24 14 -114 14 -101
0 -115 -2 -120 -17z"/>
<path d="M123 608 l-120 -603 115 -3 c69 -2 118 1 122 7 3 6 19 75 34 154 l29
144 161 6 c186 6 249 17 329 60 213 112 340 474 238 676 -25 48 -91 107 -150
135 -43 20 -64 21 -342 24 l-295 3 -121 -603z m594 392 c28 -6 59 -20 68 -30
60 -67 21 -305 -64 -391 -43 -43 -118 -63 -273 -74 -97 -7 -98 -7 -98 15 0 22
86 460 96 489 4 11 25 13 112 8 59 -3 130 -11 159 -17z"/>
<path d="M2275 1198 c-6 -19 -235 -1174 -235 -1187 0 -7 39 -11 118 -11 l117
0 30 152 30 153 165 7 c257 10 324 33 436 149 111 116 171 282 161 444 -6 99
-30 156 -91 217 -77 77 -97 81 -434 86 -235 3 -293 1 -297 -10z m441 -193 c99
-19 125 -41 132 -114 9 -102 -36 -256 -93 -313 -30 -29 -49 -38 -113 -51 -96
-20 -233 -30 -249 -19 -10 6 -2 64 37 258 27 137 50 250 50 252 0 8 172 -1
236 -13z"/>
</g>
</svg>
